# Blender 4.3.2
# www.blender.org
mtllib test2.mtl
o Cone
v -0.000002 2.000000 -1.000000
v -0.866027 1.999999 0.500000
v 0.866023 2.000001 0.500000
v 0.000002 -2.000000 0.000000
vn -0.8593 -0.1240 -0.4961
vn -0.0000 1.0000 -0.0000
vn -0.0000 -0.1240 0.9923
vn 0.8593 -0.1240 -0.4961
vt 0.250000 0.490000
vt 0.250000 0.250000
vt 0.457846 0.130000
vt 0.750000 0.490000
vt 0.957846 0.130000
vt 0.542154 0.130000
vt 0.042154 0.130000
s 0
f 1/1/1 4/2/1 2/3/1
f 1/4/2 2/5/2 3/6/2
f 2/3/3 4/2/3 3/7/3
f 3/7/4 4/2/4 1/1/4
